<?xml version="1.0" encoding="UTF-8"?>
<svg width="512" height="512" viewBox="0 0 512 512" xmlns="http://www.w3.org/2000/svg">
  <defs>
    <linearGradient id="printerGradient" x1="0%" y1="0%" x2="100%" y2="100%">
      <stop offset="0%" style="stop-color:#4A90E2;stop-opacity:1" />
      <stop offset="100%" style="stop-color:#2E5CB8;stop-opacity:1" />
    </linearGradient>
    <linearGradient id="paperGradient" x1="0%" y1="0%" x2="100%" y2="100%">
      <stop offset="0%" style="stop-color:#FFFFFF;stop-opacity:1" />
      <stop offset="100%" style="stop-color:#F5F5F5;stop-opacity:1" />
    </linearGradient>
    <linearGradient id="shadowGradient" x1="0%" y1="0%" x2="100%" y2="100%">
      <stop offset="0%" style="stop-color:#000000;stop-opacity:0.1" />
      <stop offset="100%" style="stop-color:#000000;stop-opacity:0.3" />
    </linearGradient>
  </defs>

  <!-- 背景圆形 -->
  <circle cx="256" cy="256" r="240" fill="url(#printerGradient)" stroke="#1A4480" stroke-width="4"/>

  <!-- 打印机主体 -->
  <rect x="120" y="180" width="272" height="160" rx="12" ry="12" fill="#E8E8E8" stroke="#CCCCCC" stroke-width="2"/>

  <!-- 打印机顶部 -->
  <rect x="130" y="140" width="252" height="50" rx="8" ry="8" fill="#D0D0D0" stroke="#AAAAAA" stroke-width="2"/>

  <!-- 打印机底部 -->
  <rect x="130" y="330" width="252" height="40" rx="6" ry="6" fill="#D0D0D0" stroke="#AAAAAA" stroke-width="2"/>

  <!-- 显示屏 -->
  <rect x="160" y="200" width="80" height="40" rx="4" ry="4" fill="#000000"/>
  <rect x="164" y="204" width="72" height="32" rx="2" ry="2" fill="#00FF00"/>

  <!-- 控制按钮 -->
  <circle cx="280" cy="210" r="12" fill="#FF4444"/>
  <circle cx="310" cy="210" r="12" fill="#44FF44"/>
  <circle cx="340" cy="210" r="12" fill="#4444FF"/>

  <!-- 纸张托盘 -->
  <rect x="140" y="160" width="232" height="8" rx="4" ry="4" fill="#F0F0F0" stroke="#CCCCCC" stroke-width="1"/>

  <!-- 出纸口 -->
  <rect x="150" y="250" width="212" height="6" rx="3" ry="3" fill="#FFFFFF" stroke="#DDDDDD" stroke-width="1"/>

  <!-- 打印纸张 -->
  <rect x="170" y="260" width="172" height="60" rx="3" ry="3" fill="url(#paperGradient)" stroke="#DDDDDD" stroke-width="1"/>

  <!-- 纸张上的文字线条 -->
  <line x1="185" y1="275" x2="320" y2="275" stroke="#666666" stroke-width="2"/>
  <line x1="185" y1="285" x2="300" y2="285" stroke="#666666" stroke-width="2"/>
  <line x1="185" y1="295" x2="310" y2="295" stroke="#666666" stroke-width="2"/>
  <line x1="185" y1="305" x2="280" y2="305" stroke="#666666" stroke-width="2"/>

  <!-- 餐具图标 -->
  <g transform="translate(360, 120)">
    <!-- 叉子 -->
    <path d="M0 0 L4 0 L4 25 L6 25 L6 35 L2 35 L2 25 L0 25 Z" fill="#FF6B35"/>
    <circle cx="2" cy="2" r="1" fill="#FF6B35"/>
    <circle cx="4" cy="2" r="1" fill="#FF6B35"/>
  </g>

  <g transform="translate(380, 120)">
    <!-- 刀子 -->
    <path d="M2 0 L4 0 L4 20 L6 20 L6 35 L0 35 L0 20 L2 20 Z" fill="#FF6B35"/>
    <ellipse cx="3" cy="12" rx="2" ry="8" fill="#FFAA80"/>
  </g>

  <!-- 阴影效果 -->
  <ellipse cx="256" cy="480" rx="200" ry="20" fill="url(#shadowGradient)"/>

  <!-- 装饰性光泽 -->
  <ellipse cx="200" cy="180" rx="30" ry="15" fill="#FFFFFF" opacity="0.3"/>
</svg>